#tb 0: 1/25
0,          0,          0,        1,    62916, e8443c85edaa534618869eb50a54d8ee
0,          1,          1,        1,    62856, 0b9504992a19ffbe5a1f12d823a15f0f
0,          2,          2,        1,    64112, 609f1d6cfd57fc87565f3078c48c06f0
0,          3,          3,        1,    62748, e57217dc1de96a6c9494ceea126e71a1
0,          4,          4,        1,    61696, d3bba27c92b9cc4503274dffdcb7de3e
0,          5,          5,        1,    63320, f84c26950c6aa2a29af17a923723ea18
0,          6,          6,        1,    63556, 2f2b60577616ea085b77b0154b8eb935
0,          7,          7,        1,    62812, c2cd5836f6ea3bcbf5affdfb623e1aab
0,          8,          8,        1,    63204, 010dd4c0a5681507f96502abfe1a8b55
0,          9,          9,        1,    63516, 69b945a7afd1efad7c473c1113f66c5f
0,         10,         10,        1,    63356, 05c2acb737b75e96d757fbd4270d9109
0,         11,         11,        1,    63364, f63b1184912c6f25fce3f5fd166fc90c
0,         12,         12,        1,    62416, 3bb6161920400a4535188103e5ee9b64
0,         13,         13,        1,    62980, 6482cec5429083c3759588a2d81c2dc8
0,         14,         14,        1,    63964, 8567a41bc0e6a6acef2c5b9991a370da
0,         15,         15,        1,    64044, a80fc046d821bb7d3b1d0732b5528a0d
0,         16,         16,        1,    62976, 623d43978c0255d7ad94dbbb08911c74
0,         17,         17,        1,    63084, 1459781283da8935125776f157db1fc9
0,         18,         18,        1,    62436, e9c751f7690590affd7e85775fe21fca
0,         19,         19,        1,    62168, 948822a3568448032d2d0742031c6a33
0,         20,         20,        1,    61724, 724e7f5384f8a9c7a03cba49abc1bef1
0,         21,         21,        1,    61736, 3b0a781f947af472439852fd70d7e235
0,         22,         22,        1,    62000, 0e41647e42cecc7644a42e3d96f34cfb
0,         23,         23,        1,    62848, 1fc1813e6b44d573f3327533c161a262
0,         24,         24,        1,    63504, 96c17ee6abc37fa6db608716d02b8ac7
0,         25,         25,        1,    62732, 2cbeaaddd16d4686a3abdfaba7309107
0,         26,         26,        1,    62288, b7263b7119853aee434290fb3cd30a16
0,         27,         27,        1,    61788, e915b09f59360c1ffb92c2b80499e020
0,         28,         28,        1,    60272, 0aab9182c5fb047344bdae541fb1befb
0,         29,         29,        1,    60268, bc1bf979670850c37ab31e329dd909a6
0,         30,         30,        1,    61268, 74a62d3c1363ea38d2a8687ac39a4112
0,         31,         31,        1,    62264, 5b689d5835044b1582f664c1a3c3f336
0,         32,         32,        1,    62668, 10638908ec2b59e0b75168ed7cce4141
0,         33,         33,        1,    63864, 78bac64552f0a2450fc87fe8153a6774
0,         34,         34,        1,    63032, befb82196b484ec3bb9d0eb57beb3c42
0,         35,         35,        1,    62512, aea5110ce91111c9ce93865a82134125
0,         36,         36,        1,    61772, 2744a404a3448db9db6214c688b4ed9f
0,         37,         37,        1,    62044, c712fbf903d575fd4adc926470f99799
0,         38,         38,        1,    61780, 97664d4ecf4492e0b8aa3ca025730158
0,         39,         39,        1,    61724, 4b89a0cb4f99398e412eb4c4b8268fad
0,         40,         40,        1,    60560, db2de1312d493917ebd805972a0d0086
0,         41,         41,        1,    62284, b85ab454e9599ca9b52fc4e3ad2faaec
0,         42,         42,        1,    61864, ae717317d753d6334d317abff4c51491
0,         43,         43,        1,    61728, 70d6c4c68a112fde735195c5177123c8
0,         44,         44,        1,    61252, 14b9a9e1686a1787991dfd40ed871184
0,         45,         45,        1,    60224, ad1094331e5b2c27381e4e1781baa85c
0,         46,         46,        1,    59416, a7b2ef933eaf0c8706bcf1f1f06dc01e
0,         47,         47,        1,    59656, 89ff0f1c3ded6aa335f9c3ee66dead8e
0,         48,         48,        1,    59616, 5fc6c44004562ed74b536374059a8bdd
0,         49,         49,        1,    58836, feb32d803459a18e487f87c02ec1bf5c
